<svg xmlns="http://www.w3.org/2000/svg" viewBox="0 0 32 32" role="img" aria-label="LLM Monitor">
  <defs>
    <linearGradient id="bg" x1="0%" y1="0%" x2="100%" y2="100%">
      <stop offset="0%" style="stop-color:#1a2332"/>
      <stop offset="100%" style="stop-color:#0f1419"/>
    </linearGradient>
    <linearGradient id="line1" x1="0%" y1="100%" x2="100%" y2="0%">
      <stop offset="0%" style="stop-color:#5b8def"/>
      <stop offset="100%" style="stop-color:#3ecf8e"/>
    </linearGradient>
  </defs>
  <rect width="32" height="32" rx="7" fill="url(#bg)"/>
  <rect x="2" y="2" width="28" height="28" rx="6" fill="none" stroke="#2d3a4d" stroke-width="0.75"/>
  <!-- subtle grid -->
  <path d="M6 22h20M6 18h20M6 14h20M6 10h20" stroke="#2d3a4d" stroke-width="0.35" opacity="0.6"/>
  <path d="M10 6v18M14 6v18M18 6v18M22 6v18" stroke="#2d3a4d" stroke-width="0.35" opacity="0.6"/>
  <!-- main trend line -->
  <path d="M7 22 L11 18 L15 16 L19 11 L25 7" fill="none" stroke="url(#line1)" stroke-width="2" stroke-linecap="round" stroke-linejoin="round"/>
  <!-- second softer series -->
  <path d="M7 24 L12 21 L16 19 L21 14 L25 12" fill="none" stroke="#5b8def" stroke-width="1.2" stroke-linecap="round" opacity="0.55"/>
  <!-- points -->
  <circle cx="25" cy="7" r="1.6" fill="#3ecf8e"/>
  <circle cx="19" cy="11" r="1.1" fill="#5b8def"/>
</svg>
